<svg width="80" height="80" xmlns="http://www.w3.org/2000/svg" xmlns:xlink="http://www.w3.org/1999/xlink">
    <defs>
        <path id="pin-path-1" d="M21.26 31.89a10.572 10.572 0 01-7.518-3.113 10.572 10.572 0 01-3.112-7.517c0-5.863 4.767-10.63 10.63-10.63 2.838 0 5.508 1.105 7.517 3.112a10.572 10.572 0 013.112 7.518c0 5.862-4.767 10.63-10.63 10.63m17.824 3.435l-4.837-4.836a15.86 15.86 0 002.958-9.23c0-8.804-7.138-15.944-15.944-15.944-8.805 0-15.945 7.138-15.945 15.945 0 8.804 7.138 15.944 15.945 15.944 3.44 0 6.622-1.103 9.229-2.958l4.836 4.837a2.65 2.65 0 001.88.779c.68 0 1.36-.26 1.878-.779a2.654 2.654 0 000-3.758" />
    </defs>
    <g id="pin" stroke="none" stroke-width="1" fill="none" fill-rule="evenodd">
        <g transform="translate(8)">
            <g fill="#15355A" fill-rule="nonzero">
                <path d="M41.277 29.36v-.184a7.017 7.017 0 00-1.748.514l.063.195 1.924 6.242a.925.925 0 001.137.537.888.888 0 00.611-1.074l-1.987-6.23z" id="Path"/>
                <path d="M1.893 20.824C-1.99 31.434.19 43.278 7.608 51.874l20.275 26.229A5.385 5.385 0 0031.995 80c1.59 0 3.096-.695 4.112-1.897l20.275-26.215c8.74-10.12 10.09-24.547 3.373-36.066C53.04 4.302 39.701-1.833 26.411.485 15.127 2.455 5.775 10.213 1.893 20.824z" />
            </g>
            <g transform="translate(9.412 11.294)">
                <mask id="pin-mask-2" fill="#fff">
                    <use xlink:href="#pin-path-1"/>
                </mask>
                <use fill="#15355A" xlink:href="#pin-path-1"/>
                <g mask="url(#pin-mask-2)" fill="#FFF">
                    <path d="M0 0h45.917v45.176H0z"/>
                </g>
            </g>
        </g>
    </g>
</svg>
