<svg width="80" height="80" xmlns="http://www.w3.org/2000/svg">
    <g id="burger" stroke="none" stroke-width="1" fill="none" fill-rule="evenodd">
        <g transform="translate(0 4)" fill="#15355A" fill-rule="nonzero">
            <path d="M7.801 54.925l64.603.247c4.826 0 7.239-5.219 7.251-9.563.013-4.345-2.908-9.603-8.402-9.63h-23.51a5.332 5.332 0 00-3.34 1.58l-8.6 9.133c-4.084 4.162-6.756 1.422-8.216 0l-8.414-9.225a4.842 4.842 0 00-3.329-1.605H9.162c-5.358 0-8.562 5.22-8.587 9.55-.025 4.333 2.363 9.513 7.226 9.513z" id="Path"/><path d="M6.892 31.264h66.446c2.31 0 4.436-1.289 5.544-3.36a6.58 6.58 0 00-.228-6.585C70.154 8.018 55.66 0 40.114 0 24.572 0 10.077 8.018 1.577 21.32a6.58 6.58 0 00-.228 6.583c1.108 2.072 3.234 3.361 5.544 3.361zm47.652-12.396a2.47 2.47 0 012.33-1.493c1 .03 1.884.674 2.239 1.631s.11 2.038-.62 2.738c-.73.7-1.8.882-2.713.46-1.24-.575-1.793-2.066-1.236-3.336zm-5.564-8.846a2.47 2.47 0 012.33-1.493c1 .03 1.885.675 2.24 1.631.354.957.109 2.038-.62 2.738-.73.7-1.802.882-2.713.46-1.241-.574-1.794-2.066-1.237-3.336zm-5.564 8.846a2.47 2.47 0 012.33-1.493c1 .03 1.885.674 2.24 1.631.354.957.109 2.038-.62 2.738-.73.7-1.801.882-2.713.46-1.241-.575-1.794-2.066-1.237-3.336zm-5.564-8.846a2.47 2.47 0 012.33-1.493c1 .03 1.885.675 2.24 1.631.354.957.11 2.038-.62 2.738-.73.7-1.801.882-2.713.46-1.241-.574-1.794-2.066-1.237-3.336zm-5.564 8.846a2.47 2.47 0 012.33-1.493c1 .03 1.885.674 2.24 1.631.354.957.11 2.038-.62 2.738-.73.7-1.801.882-2.713.46-1.241-.575-1.794-2.066-1.237-3.336zm-5.564-8.846a2.47 2.47 0 012.33-1.493c1 .03 1.885.675 2.24 1.631.354.957.11 2.038-.62 2.738-.73.7-1.801.882-2.713.46-1.24-.574-1.794-2.066-1.237-3.336zm-5.563 8.846a2.47 2.47 0 012.33-1.493c1 .03 1.884.674 2.239 1.631.354.957.11 2.038-.62 2.738-.73.7-1.801.882-2.713.46-1.24-.575-1.794-2.066-1.236-3.336z" id="Shape"/><path d="M77.06 59.77H3.17C1.384 59.77.134 61.826.721 63.8c1.375 4.614 5.073 7.925 9.408 7.925h59.972c4.335 0 8.033-3.311 9.408-7.925.587-1.973-.663-4.029-2.45-4.029z" />
        </g>
    </g>
</svg>
