<svg width="80" height="80" xmlns="http://www.w3.org/2000/svg" xmlns:xlink="http://www.w3.org/1999/xlink">
    <defs>
        <path id="shoppingbag-path-1" d="M13.599 14.4v21.333a3.2 3.2 0 006.4 0V14.401h32v21.332a3.2 3.2 0 006.4 0V14.401h9.486l4.081 58.562C72.342 76.731 69.394 80 65.621 80H6.378C2.604 80-.345 76.731.033 72.963l4.081-58.562H13.6zM44.532 0c7.646 0 13.867 6.22 13.867 13.867v.533h-6.4v-.533c0-4.117-3.35-7.467-7.467-7.467H27.466C23.35 6.4 20 9.75 20 13.867v.533h-6.4v-.533C13.6 6.221 19.82 0 27.466 0z" />
        <path id="shoppingbag-path-3" d="M20.977 37.156h29.425V65.6H20.977z"/>
    </defs>
    <g id="shoppingbag" stroke="none" stroke-width="1" fill="none" fill-rule="evenodd">
        <g transform="translate(4)">
            <mask id="shoppingbag-mask-2" fill="#fff">
                <use xlink:href="#shoppingbag-path-1"/>
            </mask>
            <use fill="#15355A" xlink:href="#shoppingbag-path-1"/>
            <g mask="url(#shoppingbag-mask-2)">
                <g transform="translate(-16 -11.2)">
                    <path fill="#15355A" d="M0 0h102.399v102.399H0z"/>
                </g>
            </g>
            <mask id="shoppingbag-mask-4" fill="#fff">
                <use xlink:href="#shoppingbag-path-3"/>
            </mask>
            <path d="M34.744 37.434s.887-.626 1.886 0c0 0 2.265 1.353 4.164 2.9 0 0 .36.24.372-.17 0 0-.06-1.206.092-1.585 0 0 .173-.502.695-.484 0 0 1.627.08 2.674.213 0 0 .72.074.844.888 0 0 .668 4.295.804 5.842 0 0 .13.788 1.312 2.123 0 0 2.388 3.231 2.683 3.868 0 0 .563 1.124-.64 1.273 0 0-2.198.214-2.404.25 0 0-.51.02-.491.59 0 0-.115 7.465-.682 11.055 0 0-.148 1.424-.966 1.387 0 0-2.257-.071-2.78-.055 0 0-.227.015-.192-.292 0 0 1.146-11.646.368-17.538 0 0-.03-.758-.635-.917 0 0-.54-.21-1.072.485 0 0-3.573 4.374-3.567 10.497 0 0-.066 1.864.228 2.34 0 0 .18.326 1.114.398l1.182.152s.223.007.202.28c0 0-.265 3.421-.347 4.022 0 0-.012.27-.088.405 0 0-.045.114-.415.102 0 0-5.212-.038-5.797-.012 0 0-.246.025-.3-.12-.05-.14-.364-4.414-.353-5.019 0 0-.014-.218.184-.3.24-.101 1.249-.818 1.446-2.218 0 0 .075-.355.03-1.953 0 0 .19-6.555.24-7.605 0 0 .041-.356-.44-.424 0 0-.472-.085-.543.36 0 0-.339 4.323-.27 6.043 0 0 .115 1.12-.686 1.14 0 0-.784.115-.82-.816 0 0 .055-4.205.245-6.28 0 0 .03-.366-.427-.45 0 0-.469-.092-.558.414 0 0-.336 4.02-.263 6.142 0 0 .097 1.03-.754.992 0 0-.712.081-.754-.834 0 0 .197-5.754.246-6.2 0 0 .046-.475-.464-.516 0 0-.462-.059-.52.425 0 0-.319 6.882-.265 8.902 0 0-.028 2.078 1.562 2.923 0 0 .235.13.24.328 0 0 .181 3.65.342 4.828 0 0 .06.28-.2.283 0 0-3.4.085-4.007.104 0 0-.664.044-.808-.75-.133-.736-.866-6.84-.746-11.66 0 0 .044-.55-.488-.634 0 0-2.05-.184-2.546-.303 0 0-.954-.263-.521-1.21 0 0 4.45-8.11 13.654-13.609" fill="#FFF" mask="url(#shoppingbag-mask-4)"/>
        </g>
    </g>
</svg>
